<?xml version="1.0" ?><!DOCTYPE svg  PUBLIC '-//W3C//DTD SVG 1.1//EN'  'http://www.w3.org/Graphics/SVG/1.1/DTD/svg11.dtd'><svg enable-background="new 0 0 512 512" id="Layer_1" version="1.1" viewBox="0 0 512 512" xml:space="preserve" xmlns="http://www.w3.org/2000/svg" xmlns:xlink="http://www.w3.org/1999/xlink"><path d="M374,511.7H138c-76.2,0-138-61.8-138-138v-236c0-76.2,61.8-138,138-138h236c76.2,0,138,61.8,138,138v236  C512,449.9,450.2,511.7,374,511.7z" fill="#00AFF0"/><path d="M357.3,270.4c0.6-4.5,1-9.2,1-13.9c0-56.5-46-102.3-102.8-102.3c-5.6,0-11.2,0.5-16.6,1.3  c-9.7-6.3-21.1-10-33.5-10c-33.9,0-61.4,27.5-61.4,61.4c0,12.3,3.6,23.8,9.9,33.4c-0.8,5.3-1.3,10.6-1.3,16.1  c0,56.5,46,102.3,102.8,102.3c6.4,0,12.7-0.6,18.7-1.7c9.4,5.8,20.5,9.3,32.4,9.3c33.9,0,61.4-27.5,61.4-61.4  C368,292.2,364.1,280.3,357.3,270.4z M265.1,331.9c-32.7,1.7-48-5.5-62-18.7c-15.6-14.7-9.4-31.4,3.4-32.3  c12.7-0.8,20.4,14.4,27.2,18.7c6.8,4.2,32.6,13.9,46.3-1.7c14.9-17-9.9-25.8-28-28.4c-25.9-3.8-58.6-17.8-56-45.5  c2.5-27.6,23.4-41.7,45.4-43.7c28-2.5,46.3,4.2,60.7,16.6c16.7,14.2,7.7,30.1-3,31.4c-10.6,1.3-22.5-23.4-45.8-23.8  c-24.1-0.4-40.3,25-10.6,32.3c29.7,7.2,61.6,10.2,73,37.4C327.1,301.4,297.8,330.2,265.1,331.9z" fill="#FFFFFF"/></svg>